<?xml version="1.0" standalone="no"?>
<!DOCTYPE svg PUBLIC "-//W3C//DTD SVG 20010904//EN"
 "http://www.w3.org/TR/2001/REC-SVG-20010904/DTD/svg10.dtd">
<svg version="1.0" xmlns="http://www.w3.org/2000/svg"
 width="348.000000pt" height="500.000000pt" viewBox="0 0 348.000000 500.000000"
 preserveAspectRatio="xMidYMid meet">

<g transform="translate(0.000000,500.000000) scale(0.100000,-0.100000)"
fill="#000000" stroke="none">
<path d="M0 4950 c0 -43 3 -50 20 -50 11 0 20 -3 20 -7 0 -31 145 -44 220 -21
37 12 40 15 40 50 0 21 5 38 10 38 6 0 10 9 10 20 0 19 -7 20 -160 20 l-160 0
0 -50z"/>
<path d="M400 4980 c0 -11 7 -20 15 -20 8 0 15 -9 15 -20 0 -11 5 -20 10 -20
6 0 10 -9 10 -19 0 -10 13 -33 30 -51 28 -30 33 -32 82 -27 29 3 91 8 138 10
47 3 98 10 113 16 16 6 53 11 82 11 64 0 105 16 105 42 0 13 8 18 30 18 23 0
30 4 30 20 0 11 5 20 10 20 6 0 10 9 10 20 0 20 -7 20 -340 20 -333 0 -340 0
-340 -20z"/>
<path d="M2240 4990 c0 -5 7 -10 15 -10 8 0 15 -9 15 -20 0 -13 7 -20 20 -20
13 0 20 -7 20 -20 0 -14 7 -20 24 -20 13 0 26 -5 28 -11 2 -7 24 -12 48 -12
24 0 46 5 48 12 5 14 62 15 62 1 0 -15 29 -12 46 4 8 8 14 21 14 28 0 8 9 20
20 28 11 8 20 22 20 32 0 17 -15 18 -190 18 -120 0 -190 -4 -190 -10z"/>
<path d="M1080 4800 c0 -5 81 -33 84 -28 1 2 7 10 13 18 10 13 4 15 -43 16
-30 0 -54 -2 -54 -6z"/>
<path d="M1990 4678 c1 -7 8 -26 16 -43 8 -16 12 -22 9 -12 -3 10 -5 30 -5 43
0 13 -4 24 -10 24 -5 0 -10 -6 -10 -12z"/>
<path d="M2335 4651 c-4 -20 -11 -28 -21 -24 -8 3 -14 0 -14 -6 0 -15 27 -14
37 2 9 14 16 57 9 57 -2 0 -7 -13 -11 -29z"/>
<path d="M2517 4650 c-5 -21 -11 -28 -22 -24 -8 3 -15 1 -15 -5 0 -12 20 -14
35 -3 10 7 21 62 12 62 -2 0 -7 -13 -10 -30z"/>
<path d="M777 4663 c-11 -10 -8 -53 3 -53 5 0 7 6 4 14 -3 7 2 21 11 30 13 13
14 16 2 16 -7 0 -17 -3 -20 -7z"/>
<path d="M920 4650 c6 -11 13 -20 16 -20 2 0 0 9 -6 20 -6 11 -13 20 -16 20
-2 0 0 -9 6 -20z"/>
<path d="M980 4640 c0 -16 2 -30 4 -30 2 0 6 14 8 30 3 17 1 30 -4 30 -4 0 -8
-13 -8 -30z"/>
<path d="M1020 4660 c0 -5 5 -10 10 -10 6 0 10 5 10 10 0 6 -4 10 -10 10 -5 0
-10 -4 -10 -10z"/>
<path d="M1057 4663 c-4 -3 -7 -14 -7 -24 0 -12 -5 -16 -15 -13 -8 4 -15 1
-15 -5 0 -22 31 -10 41 15 10 27 8 40 -4 27z"/>
<path d="M1090 4640 c0 -16 2 -30 4 -30 2 0 9 14 15 30 8 24 7 30 -5 30 -9 0
-14 -10 -14 -30z"/>
<path d="M1185 4649 c-4 -12 -2 -26 4 -32 8 -8 11 -6 11 9 0 11 5 25 12 32 9
9 8 12 -4 12 -9 0 -20 -9 -23 -21z"/>
<path d="M1254 4657 c8 -25 -11 -67 -31 -68 -10 0 -13 -3 -6 -5 37 -16 68 40
42 76 -9 13 -10 12 -5 -3z"/>
<path d="M1347 4649 c4 -13 8 -18 11 -10 2 7 -1 18 -6 23 -8 8 -9 4 -5 -13z"/>
<path d="M1400 4654 c0 -8 5 -12 10 -9 6 4 8 11 5 16 -9 14 -15 11 -15 -7z"/>
<path d="M1470 4654 c0 -8 5 -12 10 -9 6 4 8 11 5 16 -9 14 -15 11 -15 -7z"/>
<path d="M1550 4660 c0 -5 5 -10 10 -10 6 0 10 5 10 10 0 6 -4 10 -10 10 -5 0
-10 -4 -10 -10z"/>
<path d="M1587 4664 c-4 -4 -7 -15 -7 -25 0 -12 -5 -16 -15 -13 -8 4 -15 1
-15 -5 0 -19 29 -12 40 10 12 21 10 45 -3 33z"/>
<path d="M1630 4666 c0 -2 8 -10 18 -17 15 -13 16 -12 3 4 -13 16 -21 21 -21
13z"/>
<path d="M1678 4625 c-3 -47 6 -61 16 -22 9 33 7 67 -3 67 -5 0 -11 -20 -13
-45z"/>
<path d="M1721 4638 c1 -31 1 -31 8 -8 4 14 13 24 20 22 7 -1 10 2 6 8 -14 23
-35 10 -34 -22z"/>
<path d="M1820 4654 c0 -8 5 -12 10 -9 6 3 10 10 10 16 0 5 -4 9 -10 9 -5 0
-10 -7 -10 -16z"/>
<path d="M1850 4644 c0 -19 -4 -25 -15 -20 -8 3 -15 1 -15 -4 0 -5 10 -9 23
-8 17 2 22 9 23 30 1 15 -3 28 -7 28 -5 0 -9 -12 -9 -26z"/>
<path d="M1890 4654 c0 -8 5 -12 10 -9 6 4 8 11 5 16 -9 14 -15 11 -15 -7z"/>
<path d="M1926 4648 c-3 -13 -1 -27 4 -32 7 -7 10 1 10 22 0 37 -5 41 -14 10z"/>
<path d="M2260 4640 c0 -16 2 -30 4 -30 2 0 6 14 8 30 3 17 1 30 -4 30 -4 0
-8 -13 -8 -30z"/>
<path d="M2300 4660 c0 -5 5 -10 10 -10 6 0 10 5 10 10 0 6 -4 10 -10 10 -5 0
-10 -4 -10 -10z"/>
<path d="M2420 4640 c0 -16 4 -30 8 -30 4 0 9 14 10 30 1 17 -2 30 -8 30 -5 0
-10 -13 -10 -30z"/>
<path d="M2485 4660 c-3 -5 -1 -10 4 -10 6 0 11 5 11 10 0 6 -2 10 -4 10 -3 0
-8 -4 -11 -10z"/>
<path d="M2570 4650 c6 -11 13 -20 16 -20 2 0 0 9 -6 20 -6 11 -13 20 -16 20
-2 0 0 -9 6 -20z"/>
<path d="M2630 4635 c0 -19 2 -35 4 -35 2 0 6 16 8 35 2 19 0 35 -4 35 -4 0
-8 -16 -8 -35z"/>
<path d="M2670 4660 c0 -5 5 -10 10 -10 6 0 10 5 10 10 0 6 -4 10 -10 10 -5 0
-10 -4 -10 -10z"/>
<path d="M2704 4646 c-4 -16 -11 -23 -20 -19 -8 3 -14 0 -14 -7 0 -6 10 -10
22 -8 15 2 23 11 25 31 5 34 -4 36 -13 3z"/>
<path d="M2745 4661 c-3 -5 -1 -12 5 -16 5 -3 10 1 10 9 0 18 -6 21 -15 7z"/>
<path d="M2778 4645 c-3 -14 1 -30 8 -36 8 -6 11 -15 8 -20 -3 -5 0 -9 5 -9
14 0 14 17 1 25 -6 3 -7 17 -4 30 3 12 1 26 -4 29 -5 3 -12 -5 -14 -19z"/>
<path d="M839 4635 c-3 -19 -13 -34 -29 -43 l-25 -13 24 3 c30 4 52 36 41 63
-7 17 -8 16 -11 -10z"/>
<path d="M1437 4647 c-3 -9 -13 -17 -22 -17 -8 0 -15 -4 -15 -10 0 -14 13 -13
34 3 11 8 17 20 14 27 -3 11 -6 10 -11 -3z"/>
<path d="M1505 4639 c-4 -12 -3 -25 2 -30 6 -6 10 1 11 21 1 35 -4 39 -13 9z"/>
<path d="M1783 4648 c9 -25 -20 -56 -56 -61 l-32 -4 36 -1 c52 -3 93 52 57 74
-7 5 -9 2 -5 -8z"/>
<path d="M905 4618 c3 -16 0 -28 -8 -31 -7 -3 -5 -6 6 -6 19 -1 21 13 6 44 -8
17 -9 16 -4 -7z"/>
<path d="M1622 4618 c5 -26 4 -27 -51 -31 l-56 -3 62 -2 c60 -2 62 -1 59 23
-1 14 -6 28 -11 33 -4 4 -6 -5 -3 -20z"/>
<path d="M2554 4616 c5 -22 3 -24 -35 -24 -23 -1 -44 -3 -47 -6 -3 -3 20 -6
51 -6 l56 0 -10 30 c-13 36 -24 40 -15 6z"/>
<path d="M941 4603 c-10 -26 -10 -27 4 -9 8 11 15 23 15 28 0 15 -7 8 -19 -19z"/>
<path d="M1893 4613 c4 -20 0 -22 -47 -26 l-51 -3 58 -2 c59 -2 69 6 46 38 -9
12 -10 11 -6 -7z"/>
<path d="M2595 4610 c-4 -12 -5 -24 -2 -27 3 -2 8 5 12 17 4 12 5 24 2 27 -3
2 -8 -5 -12 -17z"/>
<path d="M1146 4605 c-4 -12 -26 -15 -98 -17 l-93 -2 80 -3 c44 -2 90 -2 101
1 21 6 42 36 25 36 -5 0 -11 -7 -15 -15z"/>
<path d="M1315 4610 c-3 -5 -3 -10 2 -10 4 0 1 -5 -7 -10 -9 -6 -10 -10 -3
-10 7 0 17 9 23 20 11 20 -3 30 -15 10z"/>
<path d="M1473 4607 c4 -10 0 -17 -11 -20 -12 -3 -11 -5 6 -6 23 -1 31 22 10
35 -7 5 -9 2 -5 -9z"/>
<path d="M1970 4606 c0 -8 -8 -17 -17 -19 -14 -4 -14 -5 3 -6 14 -1 24 6 27
19 3 11 1 20 -4 20 -5 0 -9 -6 -9 -14z"/>
<path d="M2075 4610 c-3 -5 -3 -10 2 -10 4 0 1 -5 -7 -10 -9 -6 -10 -10 -3
-10 7 0 17 9 23 20 11 20 -3 30 -15 10z"/>
<path d="M2227 4613 c-4 -3 -7 -13 -7 -22 1 -13 3 -13 11 2 11 19 8 33 -4 20z"/>
<path d="M2746 4606 c4 -10 -10 -14 -62 -15 -93 -2 -95 -11 -2 -11 41 0 77 3
81 6 8 8 -3 34 -14 34 -4 0 -6 -6 -3 -14z"/>
<path d="M2010 4590 c-13 -8 -12 -10 3 -10 9 0 17 5 17 10 0 12 -1 12 -20 0z"/>
<path d="M2120 4590 c-13 -8 -12 -10 3 -10 9 0 17 5 17 10 0 12 -1 12 -20 0z"/>
<path d="M2295 4590 l-50 -7 52 -1 c28 -1 55 3 58 8 3 6 3 9 -2 8 -4 0 -30 -4
-58 -8z"/>
<path d="M2420 4590 c-13 -8 -12 -10 3 -10 9 0 17 5 17 10 0 12 -1 12 -20 0z"/>
<path d="M1368 4583 c12 -2 30 -2 40 0 9 3 -1 5 -23 4 -22 0 -30 -2 -17 -4z"/>
<path d="M2188 4583 c7 -3 16 -2 19 1 4 3 -2 6 -13 5 -11 0 -14 -3 -6 -6z"/>
<path d="M821 4396 c-10 -12 -8 -13 8 -9 12 3 18 9 15 14 -7 12 -10 11 -23 -5z"/>
<path d="M1260 4360 c-9 -6 -10 -10 -3 -10 6 0 15 5 18 10 8 12 4 12 -15 0z"/>
<path d="M2882 4316 c7 -8 15 -12 17 -11 5 6 -10 25 -20 25 -5 0 -4 -6 3 -14z"/>
<path d="M2467 4229 c7 -7 15 -10 18 -7 3 3 -2 9 -12 12 -14 6 -15 5 -6 -5z"/>
<path d="M1680 4174 c0 -2 9 -8 20 -14 11 -6 20 -7 20 -2 0 6 -9 12 -20 15
-11 3 -20 3 -20 1z"/>
<path d="M1586 4154 c-5 -14 -4 -15 9 -4 17 14 19 20 6 20 -5 0 -12 -7 -15
-16z"/>
<path d="M1896 4043 c-8 -8 -13 -9 -42 -12 -8 0 -13 -5 -10 -10 3 -5 -8 -11
-24 -15 -28 -5 -30 -9 -30 -48 0 -54 11 -72 38 -64 17 6 20 3 15 -16 -5 -21
-5 -22 9 -5 25 33 98 3 98 -39 0 -7 -12 -17 -27 -23 -23 -8 -18 -9 26 -4 39 4
52 2 47 -6 -4 -6 -12 -9 -17 -6 -16 10 -10 -22 7 -36 15 -12 14 -14 -2 -19 -9
-4 -18 -14 -20 -24 -2 -11 2 -16 11 -12 13 5 25 -14 25 -37 0 -7 -4 -6 -9 2
-8 12 -14 13 -35 3 -33 -15 -35 -35 -3 -23 14 6 30 6 38 0 8 -5 10 -9 5 -9 -5
0 -3 -6 3 -14 9 -11 9 -15 -1 -19 -10 -4 -9 -9 4 -20 10 -8 14 -17 10 -21 -11
-12 41 -3 54 9 13 11 8 29 -5 21 -4 -3 -6 14 -4 37 2 23 8 44 13 45 6 2 10 21
10 41 0 38 24 71 62 84 21 7 49 -33 42 -60 -8 -29 16 -34 61 -12 41 20 120 26
130 9 8 -14 62 -13 71 1 3 6 0 15 -7 20 -10 6 -5 8 16 7 33 -2 55 7 55 23 0 6
-4 8 -9 4 -5 -3 -12 -1 -15 4 -3 4 -20 12 -38 16 -18 4 -27 9 -20 12 20 8 14
33 -8 33 -23 0 -26 23 -10 66 13 32 -2 54 -30 47 -11 -3 -37 2 -59 10 -21 9
-41 14 -43 11 -3 -2 -54 0 -114 6 -60 6 -134 10 -166 10 -45 -1 -60 3 -75 20
-11 11 -23 17 -27 13z"/>
<path d="M1480 4019 c0 -5 5 -7 10 -4 6 3 10 8 10 11 0 2 -4 4 -10 4 -5 0 -10
-5 -10 -11z"/>
<path d="M1380 3978 c-12 -22 -12 -22 6 -6 10 10 15 20 12 24 -4 3 -12 -5 -18
-18z"/>
<path d="M975 3970 c-3 -5 -2 -10 4 -10 5 0 13 5 16 10 3 6 2 10 -4 10 -5 0
-13 -4 -16 -10z"/>
<path d="M1385 3950 c-3 -6 1 -7 9 -4 18 7 21 14 7 14 -6 0 -13 -4 -16 -10z"/>
<path d="M1340 3940 c20 -13 33 -13 25 0 -3 6 -14 10 -23 10 -15 0 -15 -2 -2
-10z"/>
<path d="M1400 3930 c-13 -8 -13 -10 2 -10 9 0 20 5 23 10 8 13 -5 13 -25 0z"/>
<path d="M956 3914 c-9 -22 -8 -26 6 -22 13 5 20 38 8 38 -4 0 -11 -7 -14 -16z"/>
<path d="M1346 3916 c10 -8 21 -12 24 -10 5 6 -21 24 -34 24 -6 0 -1 -6 10
-14z"/>
<path d="M1400 3890 c-12 -8 -12 -10 5 -10 11 0 27 5 35 10 12 8 12 10 -5 10
-11 0 -27 -5 -35 -10z"/>
<path d="M1330 3880 c0 -8 24 -20 41 -20 6 0 8 4 5 9 -8 12 -46 21 -46 11z"/>
<path d="M2522 3855 c-18 -39 -14 -50 8 -30 20 18 28 55 12 55 -5 0 -14 -11
-20 -25z"/>
<path d="M945 3860 c-3 -5 -1 -10 4 -10 6 0 11 5 11 10 0 6 -2 10 -4 10 -3 0
-8 -4 -11 -10z"/>
<path d="M544 3852 c-11 -7 -29 -60 -25 -75 1 -5 -3 -6 -8 -3 -5 4 -13 -4 -16
-16 -4 -13 -18 -37 -31 -55 -28 -38 -28 -32 -9 -78 13 -30 18 -35 30 -25 12
10 15 9 15 -4 0 -24 31 -67 43 -59 6 3 7 1 3 -6 -4 -6 -12 -9 -17 -6 -5 4 -14
-6 -20 -22 -12 -32 -26 -43 -57 -43 -12 0 -33 -6 -45 -14 -43 -27 -91 -28
-122 -4 -27 21 -159 47 -247 48 l-38 0 0 -420 0 -420 35 0 c22 0 38 -6 41 -15
4 -9 19 -15 35 -15 16 0 29 -3 29 -7 0 -5 20 -16 45 -26 30 -13 45 -25 45 -37
0 -43 10 -50 70 -50 35 0 60 -5 62 -12 2 -6 18 -11 36 -10 18 0 32 -3 32 -8 0
-16 36 -22 149 -26 106 -4 117 -2 148 19 18 12 33 30 33 40 0 10 8 17 20 17
11 0 38 12 59 26 39 26 88 30 84 7 -4 -16 44 -63 62 -63 25 0 17 27 -10 34
-14 4 -25 11 -25 16 0 12 42 4 84 -16 16 -8 35 -14 42 -14 29 0 62 -23 57 -39
-5 -13 -3 -13 15 2 31 28 49 11 20 -21 -13 -14 -17 -22 -10 -18 22 13 12 -15
-15 -40 -14 -13 -23 -27 -20 -31 4 -3 15 2 26 11 18 16 20 16 35 -6 9 -12 16
-28 16 -35 0 -7 10 -17 22 -24 l21 -11 -21 35 c-23 35 -29 63 -13 53 10 -6 24
20 25 44 1 8 11 16 24 18 12 2 22 10 22 18 0 13 20 19 45 14 6 -1 26 -3 46 -5
38 -3 82 -32 72 -48 -3 -5 -9 -4 -13 3 -5 8 -15 10 -26 6 -16 -6 -16 -8 -4
-17 13 -7 13 -10 1 -18 -11 -7 -11 -10 1 -17 20 -12 29 -42 15 -48 -7 -3 -3
-5 8 -3 11 1 25 -2 32 -6 18 -12 42 3 36 21 -4 9 -10 20 -15 23 -12 8 -13 88
-2 99 5 5 32 11 59 12 44 3 49 1 55 -22 7 -23 8 -23 15 -6 8 18 9 18 16 -2 9
-25 56 -30 78 -9 7 6 4 -7 -8 -30 -24 -48 -25 -53 -11 -53 6 0 10 8 10 18 0
32 29 62 60 62 35 0 47 15 23 29 -22 13 -18 13 89 11 64 -1 92 2 111 14 15 11
41 15 73 14 32 -2 48 1 47 8 -1 7 3 11 10 11 56 -2 87 4 87 18 0 8 14 17 38
21 20 4 43 12 51 18 7 6 26 9 42 8 15 -2 37 2 48 8 17 8 21 8 21 -4 0 -7 8
-13 17 -12 10 0 20 -9 25 -24 7 -25 8 -25 4 3 -2 15 1 27 5 27 5 0 9 -4 9 -10
0 -5 5 -10 11 -10 6 0 9 7 5 15 -3 8 -1 15 4 15 6 0 10 -5 10 -10 0 -6 11 -3
25 6 14 9 25 13 25 9 0 -4 6 -2 14 4 15 13 46 5 46 -13 0 -6 4 -5 9 3 8 12 11
10 16 -10 3 -14 5 -29 4 -35 -1 -5 1 -17 6 -27 10 -24 -13 -51 -32 -36 -7 7
-17 9 -20 5 -4 -4 -1 -11 6 -16 12 -7 12 -9 0 -13 -10 -3 -10 -3 1 -2 8 2 24
6 34 11 15 6 18 4 14 -8 -4 -9 0 -28 8 -44 14 -26 14 -29 -8 -46 l-23 -18 23
0 c17 0 22 -6 22 -28 0 -15 6 -34 13 -41 10 -11 8 -13 -12 -8 -31 8 -51 -8
-44 -34 5 -19 4 -20 -15 -8 -19 12 -24 11 -38 -3 -16 -16 -16 -17 4 -11 22 5
31 -10 12 -22 -5 -3 -10 -13 -10 -20 0 -12 5 -12 25 -3 14 6 25 18 25 25 0 8
4 12 9 8 11 -6 33 28 26 39 -3 3 3 0 11 -8 13 -11 17 -37 18 -125 0 -61 3
-111 6 -111 3 0 13 27 22 59 13 49 13 61 2 65 -8 3 -12 21 -11 50 2 36 7 47
24 55 19 9 20 13 10 40 -6 16 -21 35 -34 42 -27 14 -30 44 -6 57 10 6 14 16
10 26 -9 23 -27 20 -24 -5 1 -12 -3 -24 -10 -26 -9 -3 -10 4 -3 27 5 19 5 42
-2 61 -11 33 -3 53 12 29 9 -13 10 -13 11 0 0 8 6 2 13 -14 8 -18 16 -24 20
-17 4 6 4 11 0 11 -4 0 1 7 12 15 19 14 19 14 -3 15 -13 0 -24 8 -28 21 -6 16
-9 18 -15 8 -6 -9 -11 -4 -15 17 -4 16 -8 34 -10 41 -2 7 2 10 9 7 10 -4 12 2
9 19 -10 49 52 69 84 28 7 -9 13 -11 13 -6 0 6 5 3 10 -5 7 -12 12 -12 21 -3
10 10 9 14 -5 19 -9 4 -19 4 -23 1 -3 -4 -14 4 -24 16 -17 21 -17 22 9 43 25
20 25 23 13 64 -9 30 -9 46 -2 53 14 14 14 40 1 32 -5 -3 -10 1 -10 9 0 10 6
13 15 10 8 -4 15 -1 15 6 0 16 -23 37 -36 33 -6 -2 -17 3 -23 11 -7 8 -18 13
-25 10 -7 -3 -21 5 -31 17 -19 20 -19 21 -2 34 22 16 12 48 -13 40 -22 -7 -47
20 -26 28 10 4 13 1 9 -9 -4 -11 0 -12 18 -5 13 5 23 15 21 21 -2 7 5 21 14
31 16 18 6 28 -10 12 -4 -5 -13 -8 -19 -8 -7 -1 -11 -6 -10 -11 1 -6 -5 -11
-13 -11 -9 0 -13 6 -9 15 3 9 0 19 -7 23 -9 6 -8 12 6 27 17 19 17 20 -3 27
-12 3 -21 13 -21 21 0 17 -36 55 -45 46 -3 -4 -4 7 -1 23 3 16 1 34 -5 41 -6
7 -8 17 -5 22 8 13 -32 72 -49 72 -8 0 -15 6 -15 14 0 8 -9 35 -20 61 l-20 46
25 27 c35 37 22 41 -15 3 -17 -17 -40 -31 -50 -31 -10 0 -21 -6 -23 -12 -4
-10 -6 -10 -6 0 -1 7 -5 11 -10 7 -5 -3 -12 4 -16 15 -3 11 -11 20 -16 20 -6
0 -7 9 -4 22 6 16 4 20 -8 15 -17 -7 -33 8 -39 38 -4 18 -6 18 -12 3 -5 -11
-1 -25 13 -39 16 -17 18 -25 9 -31 -18 -10 -18 -48 -2 -55 16 -6 19 -43 4 -43
-5 0 -10 -7 -10 -16 0 -8 -4 -13 -9 -9 -5 3 -12 1 -16 -4 -3 -6 -11 -8 -18 -6
-7 2 -25 7 -41 9 -16 3 -32 9 -35 14 -11 16 -86 46 -108 43 -17 -2 -21 2 -17
13 3 9 1 16 -6 16 -6 0 -8 5 -4 12 5 8 -3 9 -29 5 -31 -5 -39 -2 -48 16 -16
30 -15 30 -38 17 -19 -10 -21 -8 -21 20 0 18 4 29 10 25 5 -3 9 7 9 22 0 15 3
44 7 63 8 41 -6 33 -23 -13 -11 -32 -11 -32 -12 -5 -1 34 -18 46 -23 16 -2
-13 -10 -23 -18 -23 -24 0 -25 -36 -1 -42 12 -3 21 -11 21 -18 0 -7 3 -27 7
-45 6 -30 4 -33 -15 -28 -27 7 -28 0 -4 -18 9 -7 12 -14 6 -14 -12 0 -54 37
-54 48 0 15 23 30 36 25 9 -3 14 2 14 15 0 21 -26 37 -35 22 -10 -17 -28 -11
-21 6 4 11 -8 30 -39 59 -50 48 -75 58 -93 39 -16 -17 2 -28 26 -15 15 8 25 4
46 -18 18 -18 24 -31 17 -35 -18 -11 -13 -26 9 -26 14 0 20 -7 20 -21 0 -11 4
-17 10 -14 5 3 7 0 4 -9 -6 -15 -20 -10 -75 27 -19 13 -33 15 -50 9 l-23 -9
27 -18 c15 -9 36 -15 47 -12 11 3 20 1 20 -4 0 -5 11 -15 25 -21 14 -6 25 -15
25 -19 0 -4 -12 -1 -27 7 -34 17 -57 18 -85 3 -16 -9 -18 -13 -7 -20 11 -6 10
-9 -4 -15 -33 -12 -17 -24 36 -25 36 0 46 -3 32 -8 -34 -14 -95 -20 -95 -10 0
5 -7 9 -16 9 -9 0 -12 5 -8 12 5 7 2 9 -9 5 -8 -3 -21 1 -27 9 -7 8 -18 14
-25 14 -7 0 -12 8 -10 18 2 9 4 22 5 27 0 6 7 -5 15 -22 8 -18 21 -33 30 -33
19 0 19 14 -1 34 -11 12 -12 16 -2 16 14 0 58 59 58 78 0 15 -6 15 -31 2 -10
-6 -19 -17 -19 -24 0 -10 -10 -13 -37 -9 -31 4 -42 0 -62 -20 -19 -21 -27 -24
-48 -16 -19 7 -24 6 -21 -3 3 -7 18 -16 34 -19 16 -4 25 -7 20 -8 -6 0 -1 -7
10 -15 17 -13 16 -14 -21 -10 -36 5 -44 2 -82 -35 -41 -40 -73 -53 -73 -30 0
8 -4 8 -13 1 -7 -6 -31 -9 -55 -6 -25 2 -42 -1 -42 -7 0 -6 -9 -8 -20 -4 -13
4 -20 2 -20 -6 0 -18 -11 -4 -14 18 -2 10 -8 18 -15 18 -16 0 -31 25 -31 53 0
20 -4 22 -22 17 -19 -6 -21 -5 -10 6 18 19 15 29 -9 29 -17 0 -19 -4 -13 -22
4 -13 7 -27 7 -33 0 -32 -4 -45 -13 -40 -8 5 -8 11 -1 19 6 7 8 16 4 19 -9 10
-35 -31 -28 -43 13 -20 -14 -9 -29 12 -9 12 -16 19 -16 14 0 -5 -7 -3 -15 4
-10 9 -15 9 -15 1 0 -6 -3 -10 -7 -9 -5 0 -25 -7 -47 -16 -22 -10 -45 -14 -55
-10 -9 4 -27 8 -41 8 -14 1 -24 6 -23 11 1 6 -8 12 -19 12 -20 2 -20 1 2 -23
30 -31 19 -31 -14 0 -14 13 -29 37 -32 55 -7 31 -6 31 22 21 24 -9 31 -8 41 6
12 16 28 23 61 26 17 2 15 15 -4 22 -8 3 -12 2 -9 -4 3 -6 1 -10 -4 -10 -6 0
-11 8 -11 19 0 27 -26 47 -37 28 -4 -7 -23 -21 -42 -30 -34 -17 -60 -23 -48
-11 3 4 -4 14 -16 24 -16 13 -28 15 -45 9 -14 -5 -21 -5 -17 0 3 5 1 12 -4 15
-15 10 -1 44 25 61 27 18 29 30 12 67 -8 17 -26 30 -51 38 -34 10 -38 14 -33
36 6 24 0 30 -20 16z m56 -120 c0 -13 -4 -20 -10 -17 -5 3 -10 21 -10 38 0 24
3 28 10 17 5 -8 10 -25 10 -38z m982 -160 c-19 -2 -38 -12 -45 -23 -13 -20
-27 -25 -27 -9 0 27 32 46 68 41 l37 -6 -33 -3z m200 -87 c-3 -5 -7 -4 -10 3
-2 7 -10 12 -18 12 -7 0 -11 6 -8 14 5 12 8 12 23 -2 10 -9 15 -21 13 -27z
m-664 -26 c12 -19 11 -19 -8 -9 -11 6 -20 15 -20 20 0 17 15 11 28 -11z m1302
2 c0 -11 8 -22 18 -24 9 -3 -1 -4 -23 -2 -36 2 -37 1 -20 -11 18 -13 17 -14
-13 -8 -22 5 -32 3 -32 -6 0 -7 7 -10 16 -6 8 3 12 2 9 -4 -10 -17 -35 -11
-35 8 0 12 -6 8 -20 -13 -12 -19 -20 -24 -20 -14 0 19 36 63 53 65 7 0 18 2
26 2 7 1 11 8 7 17 -4 10 1 15 14 15 13 0 20 -7 20 -19z m-1270 -51 c0 -5 -2
-10 -4 -10 -3 0 -8 5 -11 10 -3 6 -1 10 4 10 6 0 11 -4 11 -10z m1300 -10 c0
-5 -2 -10 -4 -10 -3 0 -8 5 -11 10 -3 6 -1 10 4 10 6 0 11 -4 11 -10z m29 -31
c-22 -14 -33 -10 -19 6 7 8 17 12 22 9 6 -4 5 -10 -3 -15z m-69 -14 c0 -8 -7
-15 -15 -15 -13 0 -14 3 -3 15 16 18 18 18 18 0z m-1535 -5 c3 -5 1 -10 -4
-10 -6 0 -11 5 -11 10 0 6 2 10 4 10 3 0 8 -4 11 -10z m851 2 c-2 -4 9 -14 25
-21 18 -8 26 -17 22 -24 -4 -7 -8 -16 -8 -22 0 -5 -7 -10 -15 -10 -8 0 -14 6
-12 13 1 7 -9 17 -23 22 -28 11 -30 15 -12 35 13 15 32 21 23 7z m140 -11 c13
-10 21 -20 19 -23 -3 -2 -6 -15 -9 -29 -6 -39 -50 -19 -59 29 -9 46 9 55 49
23z m644 9 c0 -5 -4 -10 -10 -10 -5 0 -10 5 -10 10 0 6 5 10 10 10 6 0 10 -4
10 -10z m-1370 -10 c0 -5 -4 -10 -10 -10 -5 0 -10 5 -10 10 0 6 5 10 10 10 6
0 10 -4 10 -10z m45 0 c3 -5 -1 -10 -9 -10 -9 0 -16 5 -16 10 0 6 4 10 9 10 6
0 13 -4 16 -10z m435 -11 c0 -5 4 -8 9 -5 5 3 8 -1 7 -10 0 -9 8 -21 19 -28
44 -24 40 -55 -6 -54 -22 1 -38 11 -60 37 -35 43 -35 43 -6 57 30 15 37 16 37
3z m-755 -9 c3 -5 2 -10 -4 -10 -5 0 -13 5 -16 10 -3 6 -2 10 4 10 5 0 13 -4
16 -10z m305 -4 c0 -11 -19 -15 -25 -6 -3 5 1 10 9 10 9 0 16 -2 16 -4z m40
-6 c0 -5 -7 -10 -15 -10 -8 0 -15 5 -15 10 0 6 7 10 15 10 8 0 15 -4 15 -10z
m495 -26 c9 -15 12 -23 6 -20 -11 7 -35 46 -28 46 3 0 12 -12 22 -26z m-140
-13 c11 -14 16 -22 10 -20 -62 29 -67 33 -48 40 10 3 18 6 18 5 0 0 9 -12 20
-25z m491 3 c-4 -9 -9 -15 -11 -12 -3 3 -3 13 1 22 4 9 9 15 11 12 3 -3 3 -13
-1 -22z m-1571 -14 c3 -5 1 -10 -4 -10 -6 0 -11 5 -11 10 0 6 2 10 4 10 3 0 8
-4 11 -10z m1051 -18 c-4 -3 -14 2 -24 12 -16 18 -16 18 6 6 13 -6 21 -14 18
-18z m-11 -12 c3 -5 3 -15 -1 -23 -5 -13 -9 -13 -34 0 -34 16 -44 29 -35 42 6
10 61 -5 70 -19z m-125 -14 c0 -3 -4 -8 -10 -11 -5 -3 -10 -1 -10 4 0 6 5 11
10 11 6 0 10 -2 10 -4z m-200 -107 c13 -9 12 -10 -2 -5 -10 3 -18 2 -18 -3 0
-4 -7 -8 -15 -8 -18 0 -20 13 -2 20 18 8 21 8 37 -4z m-446 -38 c3 -4 3 -11 0
-14 -8 -8 -34 3 -34 14 0 11 27 12 34 0z m36 -31 c0 -5 -2 -10 -4 -10 -3 0 -8
5 -11 10 -3 6 -1 10 4 10 6 0 11 -4 11 -10z m-20 -21 c0 -11 -3 -11 -24 -3
-23 9 -20 23 4 17 11 -3 20 -9 20 -14z m35 -29 c-3 -5 -10 -10 -16 -10 -5 0
-9 5 -9 10 0 6 7 10 16 10 8 0 12 -4 9 -10z m1561 -84 c12 -13 35 -31 51 -39
16 -9 35 -27 42 -41 13 -23 11 -28 -13 -56 -14 -17 -26 -35 -26 -39 0 -14 -56
-39 -102 -46 -29 -4 -45 -11 -41 -18 4 -6 -4 -8 -20 -5 -16 3 -25 1 -24 -6 2
-12 -38 -9 -65 5 -25 14 -23 28 16 87 18 29 41 78 51 110 10 31 23 63 28 70
16 21 78 7 103 -22z m-843 -19 c8 -13 21 -42 27 -64 8 -25 33 -62 61 -92 27
-28 44 -51 38 -51 -6 0 -8 -7 -5 -16 5 -13 2 -15 -16 -11 -12 4 -27 2 -34 -4
-9 -8 -11 -5 -7 10 3 12 9 18 14 15 5 -3 9 0 9 5 0 14 -17 14 -25 1 -5 -7 -11
-8 -19 -1 -7 6 -17 6 -26 1 -21 -13 -33 -12 -24 1 5 9 -1 10 -20 5 -18 -4 -32
-2 -42 9 -10 9 -24 13 -35 10 -21 -7 -99 23 -99 38 0 5 7 7 15 3 8 -3 15 -1
15 5 0 5 5 15 10 22 6 7 23 32 39 58 16 25 43 52 62 62 44 21 44 21 62 -6z
m525 -24 c5 -32 -38 -35 -70 -6 -27 24 -22 30 25 29 36 -1 42 -4 45 -23z
m-208 -98 c0 -8 -4 -15 -10 -15 -5 0 -10 7 -10 15 0 8 5 15 10 15 6 0 10 -7
10 -15z m831 -82 c-12 -20 -14 -14 -5 12 4 9 9 14 11 11 3 -2 0 -13 -6 -23z
m-936 -41 c-10 -2 -25 3 -33 12 -15 14 -13 15 17 3 23 -8 28 -13 16 -15z m32
-47 c-15 -16 -22 -11 -13 10 3 9 10 13 16 10 6 -4 5 -11 -3 -20z m-507 11 c0
-3 -4 -8 -10 -11 -5 -3 -10 -1 -10 4 0 6 5 11 10 11 6 0 10 -2 10 -4z m-533
-21 c-5 -16 -37 -18 -37 -3 0 8 9 14 20 14 11 0 19 -5 17 -11z m1925 -65 c-7
-18 -20 21 -20 60 0 21 1 20 12 -10 7 -19 11 -42 8 -50z m-700 28 c-7 -7 -12
-8 -12 -2 0 6 3 14 7 17 3 4 9 5 12 2 2 -3 -1 -11 -7 -17z m-734 -35 c-2 -9
-8 -18 -15 -20 -7 -3 -9 3 -6 16 6 25 26 28 21 4z m-4 -48 c-4 -8 -2 -15 4
-15 5 0 7 -11 5 -24 -5 -23 -24 -29 -40 -11 -4 4 -2 5 5 1 8 -5 12 0 12 14 0
12 -4 18 -10 15 -5 -3 -10 -2 -10 4 0 5 8 15 18 20 22 13 22 13 16 -4z m1500
-206 c-11 -18 -22 -8 -26 23 l-5 32 18 -23 c11 -13 16 -27 13 -32z m-17 -171
c-3 -8 -6 -5 -6 6 -1 11 2 17 5 13 3 -3 4 -12 1 -19z"/>
<path d="M1195 3840 c-3 -6 1 -7 9 -4 18 7 21 14 7 14 -6 0 -13 -4 -16 -10z"/>
<path d="M1395 3839 c-4 -6 -1 -15 6 -20 22 -14 37 -10 35 9 -3 20 -31 28 -41
11z"/>
<path d="M955 3829 c-11 -17 1 -21 15 -4 8 9 8 15 2 15 -6 0 -14 -5 -17 -11z"/>
<path d="M1330 3830 c20 -13 40 -13 40 0 0 6 -12 10 -27 10 -22 0 -25 -2 -13
-10z"/>
<path d="M1857 3821 c3 -12 9 -21 14 -21 14 0 11 16 -5 29 -12 10 -13 8 -9 -8z"/>
<path d="M1768 3803 c6 -2 18 -2 25 0 6 3 1 5 -13 5 -14 0 -19 -2 -12 -5z"/>
<path d="M952 3789 c2 -6 8 -10 13 -10 5 0 11 4 13 10 2 6 -4 11 -13 11 -9 0
-15 -5 -13 -11z"/>
<path d="M1307 3783 c-4 -3 -7 -15 -7 -25 0 -10 -5 -18 -11 -18 -5 0 -8 -4 -4
-9 3 -5 1 -12 -5 -16 -5 -3 -10 -12 -10 -18 1 -7 10 -1 22 13 11 14 25 24 31
22 14 -4 57 19 57 30 0 13 -17 9 -34 -7 -19 -20 -27 -19 -19 2 4 11 3 14 -5 9
-7 -4 -12 -3 -12 3 0 5 6 12 13 14 6 3 7 6 1 6 -6 1 -14 -2 -17 -6z"/>
<path d="M1405 3773 c3 -8 5 -21 5 -30 0 -8 6 -13 13 -10 6 2 12 9 12 16 0 6
6 15 14 20 9 6 4 10 -18 13 -25 4 -31 1 -26 -9z"/>
<path d="M1480 3770 c9 -6 10 -10 3 -10 -6 0 -15 -9 -18 -20 -4 -11 -11 -18
-16 -15 -5 4 -9 2 -9 -4 0 -5 5 -13 10 -16 6 -3 10 -1 10 4 0 6 6 11 14 11 8
0 18 4 21 10 4 6 -1 7 -12 4 -13 -4 -11 -1 6 14 21 17 21 20 6 25 -24 10 -32
8 -15 -3z"/>
<path d="M1190 3765 c0 -5 68 -35 79 -35 3 0 -9 9 -27 20 -31 19 -52 25 -52
15z"/>
<path d="M965 3750 c4 -6 11 -8 16 -5 14 9 11 15 -7 15 -8 0 -12 -5 -9 -10z"/>
<path d="M1650 3751 c12 -9 11 -11 -8 -11 -25 0 -26 -20 -2 -28 7 -3 10 0 6 7
-4 6 0 11 9 11 20 0 15 22 -6 28 -11 3 -11 2 1 -7z"/>
<path d="M2485 3747 c-17 -13 -17 -14 4 -20 16 -4 21 -1 21 14 0 23 -1 23 -25
6z"/>
<path d="M980 3714 c0 -8 5 -12 10 -9 6 3 10 10 10 16 0 5 -4 9 -10 9 -5 0
-10 -7 -10 -16z"/>
<path d="M1498 3680 c2 -16 8 -27 13 -24 13 8 11 30 -4 43 -11 8 -13 5 -9 -19z"/>
<path d="M2534 3696 c-6 -17 -1 -57 10 -74 5 -8 1 -21 -9 -32 -10 -11 -15 -26
-12 -34 4 -9 2 -18 -4 -21 -15 -10 0 -25 24 -24 13 0 16 3 9 6 -10 4 -7 9 10
17 12 6 25 20 27 31 3 16 1 17 -12 7 -13 -11 -15 -7 -19 30 -3 24 -2 45 2 48
3 3 5 11 4 18 -1 6 -2 19 -3 27 -1 19 -20 20 -27 1z"/>
<path d="M1204 3686 c-10 -8 -16 -18 -11 -22 4 -4 7 -2 7 4 0 7 9 12 19 12 11
0 23 5 26 10 9 15 -18 12 -41 -4z"/>
<path d="M1289 3683 c-13 -16 -12 -17 4 -4 9 7 17 15 17 17 0 8 -8 3 -21 -13z"/>
<path d="M1472 3685 c2 -12 -4 -25 -17 -32 -19 -11 -19 -12 -1 -13 15 0 16 -3
6 -15 -15 -18 -7 -19 21 -5 15 8 18 17 13 38 -8 32 -28 57 -22 27z"/>
<path d="M2180 3689 c0 -5 -4 -7 -10 -4 -5 3 -10 -1 -10 -9 0 -9 -5 -16 -11
-16 -5 0 -7 -5 -3 -11 4 -8 -3 -9 -25 -4 -20 4 -31 3 -31 -5 0 -6 -4 -8 -10
-5 -14 9 -12 -4 3 -18 17 -17 47 -20 47 -6 0 7 3 9 7 6 3 -4 11 3 18 16 6 12
18 21 25 19 7 -2 20 0 29 4 9 4 19 8 23 8 3 1 10 5 15 10 4 5 -1 7 -14 4 -13
-4 -24 0 -27 8 -6 16 -26 19 -26 3z"/>
<path d="M1003 3658 c-1 -12 3 -25 9 -29 6 -4 2 -10 -11 -14 -11 -3 -21 -11
-21 -16 0 -5 -11 -9 -25 -9 -33 0 -43 -26 -19 -46 45 -35 50 -35 46 1 -3 22 1
40 12 50 17 18 36 12 36 -11 0 -8 4 -14 9 -14 19 0 22 22 6 46 -9 13 -13 29
-10 34 3 6 1 10 -5 10 -6 0 -8 5 -5 10 3 6 0 10 -7 10 -8 0 -14 -10 -15 -22z"/>
<path d="M1587 3660 c-3 -12 -14 -20 -25 -20 -12 0 -24 -4 -27 -10 -9 -15 32
-12 47 4 8 7 24 17 37 21 18 6 21 9 10 16 -22 14 -36 10 -42 -11z"/>
<path d="M1683 3673 c-13 -2 -23 -9 -23 -14 0 -10 8 -13 53 -24 25 -5 28 -3
25 17 -3 24 -17 29 -55 21z"/>
<path d="M1216 3661 c-3 -5 3 -11 13 -14 12 -3 22 1 25 9 6 16 -29 20 -38 5z"/>
<path d="M1485 3610 c-14 -16 -15 -20 -4 -20 16 0 39 19 39 32 0 14 -16 9 -35
-12z"/>
<path d="M1164 3608 c-4 -7 -9 -23 -10 -37 -2 -13 -7 -27 -12 -30 -12 -8 -10
-55 2 -63 20 -14 26 -8 26 21 0 16 4 41 10 55 5 15 6 28 0 31 -5 3 -7 12 -3
20 6 18 -3 20 -13 3z"/>
<path d="M1287 3599 c4 -13 8 -18 11 -10 2 7 -1 18 -6 23 -8 8 -9 4 -5 -13z"/>
<path d="M2455 3580 c-3 -5 -1 -10 4 -10 6 0 11 5 11 10 0 6 -2 10 -4 10 -3 0
-8 -4 -11 -10z"/>
<path d="M922 3511 c1 -16 6 -27 10 -25 11 7 10 42 -2 49 -6 4 -10 -5 -8 -24z"/>
<path d="M2915 3530 c3 -5 8 -10 11 -10 2 0 4 5 4 10 0 6 -5 10 -11 10 -5 0
-7 -4 -4 -10z"/>
<path d="M754 3514 c11 -8 27 -14 36 -14 9 0 21 -5 28 -12 6 -6 15 -8 19 -4 4
4 1 11 -6 15 -7 5 -9 11 -5 13 5 3 3 3 -4 1 -8 -2 -19 0 -25 4 -6 4 -23 8 -37
9 -24 3 -24 2 -6 -12z"/>
<path d="M2979 3507 c-24 -18 -12 -36 28 -43 25 -5 38 -3 44 7 11 19 -12 31
-30 16 -10 -8 -13 -8 -8 -1 11 19 -15 34 -34 21z"/>
<path d="M2487 3496 c-8 -20 27 -48 55 -44 27 4 28 21 1 27 -10 2 -22 9 -26
17 -10 18 -23 18 -30 0z"/>
<path d="M1360 3475 c-14 -16 -10 -18 14 -9 9 3 16 10 16 15 0 14 -16 11 -30
-6z"/>
<path d="M855 3470 c3 -5 11 -10 16 -10 6 0 7 5 4 10 -3 6 -11 10 -16 10 -6 0
-7 -4 -4 -10z"/>
<path d="M2800 3465 c-7 -9 -8 -15 -2 -15 5 0 12 7 16 15 3 8 4 15 2 15 -2 0
-9 -7 -16 -15z"/>
<path d="M2227 3464 c-11 -11 3 -24 18 -18 8 4 12 10 9 15 -6 11 -18 12 -27 3z"/>
<path d="M2767 3315 c6 -17 25 -15 31 3 2 7 -5 12 -17 12 -14 0 -19 -5 -14
-15z"/>
<path d="M2960 3292 c0 -5 6 -14 13 -21 10 -10 8 -11 -8 -6 -16 5 -17 5 -5 -3
8 -6 18 -8 22 -6 13 8 9 31 -7 38 -8 3 -15 2 -15 -2z"/>
<path d="M2930 3240 c0 -5 7 -7 15 -4 8 4 15 8 15 10 0 2 -7 4 -15 4 -8 0 -15
-4 -15 -10z"/>
<path d="M2883 3209 c1 -9 7 -15 14 -12 18 7 17 30 -1 30 -8 0 -14 -8 -13 -18z"/>
<path d="M2780 3171 c0 -6 -6 -9 -12 -7 -7 1 -10 1 -6 -1 4 -3 11 -5 15 -5 5
-1 13 -8 20 -17 9 -12 12 -12 13 -3 0 7 -7 20 -15 28 -8 9 -15 11 -15 5z"/>
<path d="M2705 3160 c-3 -5 3 -10 15 -10 12 0 18 5 15 10 -3 6 -10 10 -15 10
-5 0 -12 -4 -15 -10z"/>
<path d="M2670 3130 c0 -5 4 -10 9 -10 6 0 13 5 16 10 3 6 -1 10 -9 10 -9 0
-16 -4 -16 -10z"/>
<path d="M2766 3124 c-5 -14 -4 -15 9 -4 17 14 19 20 6 20 -5 0 -12 -7 -15
-16z"/>
<path d="M2787 3113 c-10 -9 -9 -23 2 -23 5 0 11 7 15 15 5 15 -5 20 -17 8z"/>
<path d="M2704 3065 c-11 -28 2 -40 44 -40 23 0 42 1 42 2 0 1 -11 14 -25 28
-29 28 -53 32 -61 10z"/>
<path d="M2927 3051 c-5 -20 15 -36 28 -23 4 4 10 8 13 8 30 6 51 18 46 26 -3
5 -12 4 -20 -3 -8 -6 -17 -9 -21 -6 -3 4 -12 2 -20 -5 -11 -8 -12 -7 -7 6 3 9
2 16 -4 16 -5 0 -12 -9 -15 -19z"/>
<path d="M2750 3011 c0 -13 26 -32 33 -24 8 7 -11 33 -24 33 -5 0 -9 -4 -9 -9z"/>
<path d="M2885 3010 c-17 -8 -16 -8 8 -7 15 1 27 5 27 9 0 10 -9 9 -35 -2z"/>
<path d="M3040 2995 c0 -8 5 -15 10 -15 6 0 10 7 10 15 0 8 -4 15 -10 15 -5 0
-10 -7 -10 -15z"/>
<path d="M2775 2970 c-4 -6 5 -10 24 -8 16 1 27 6 25 10 -7 11 -42 10 -49 -2z"/>
<path d="M2782 2931 c4 -15 48 -24 48 -10 0 14 -18 20 -26 8 -4 -8 -9 -7 -16
2 -8 12 -9 12 -6 0z"/>
<path d="M3055 2919 c-4 -5 -2 -9 4 -9 6 0 8 -7 5 -15 -4 -9 0 -15 10 -15 16
0 20 -11 16 -39 -1 -13 1 -13 14 -2 12 10 16 10 16 1 0 -6 5 -10 12 -8 12 4
20 48 8 48 -4 0 -11 10 -17 21 -9 23 -58 35 -68 18z m75 -43 c0 -3 -4 -8 -10
-11 -5 -3 -10 -1 -10 4 0 6 5 11 10 11 6 0 10 -2 10 -4z"/>
<path d="M2870 2798 c0 -25 25 -52 58 -62 17 -6 19 -3 15 14 -4 15 -8 18 -13
10 -4 -7 -13 -9 -19 -6 -6 4 -9 12 -5 17 3 6 -3 19 -15 30 -21 20 -21 20 -21
-3z"/>
<path d="M2800 2770 c0 -5 5 -10 10 -10 6 0 10 5 10 10 0 6 -4 10 -10 10 -5 0
-10 -4 -10 -10z"/>
<path d="M3010 2766 c0 -10 8 -16 22 -16 12 0 19 1 17 3 -2 1 -12 9 -21 16
-15 12 -18 11 -18 -3z"/>
<path d="M2857 2763 c-3 -5 1 -14 9 -21 12 -10 14 -10 14 2 0 17 -16 30 -23
19z"/>
<path d="M2440 2516 c0 -9 5 -16 10 -16 6 0 10 4 10 9 0 6 -4 13 -10 16 -5 3
-10 -1 -10 -9z"/>
<path d="M2740 2519 c0 -5 5 -7 10 -4 6 3 10 8 10 11 0 2 -4 4 -10 4 -5 0 -10
-5 -10 -11z"/>
<path d="M1058 2492 c-19 -4 -25 -32 -7 -32 5 0 7 -4 4 -10 -12 -19 12 -10 34
14 20 22 21 24 4 28 -10 2 -26 2 -35 0z"/>
<path d="M2736 2459 c3 -6 9 -8 12 -5 3 3 14 -1 24 -11 20 -18 32 -14 23 8 -3
8 -19 15 -35 16 -19 1 -28 -2 -24 -8z"/>
<path d="M2460 2425 c-8 -9 -8 -15 -2 -15 12 0 26 19 19 26 -2 2 -10 -2 -17
-11z"/>
<path d="M2681 2436 c2 -2 15 -9 29 -16 23 -12 24 -12 11 3 -7 10 -20 17 -29
17 -8 0 -13 -2 -11 -4z"/>
<path d="M2340 2420 c0 -5 5 -10 10 -10 6 0 10 5 10 10 0 6 -4 10 -10 10 -5 0
-10 -4 -10 -10z"/>
<path d="M1635 2410 c3 -5 8 -10 11 -10 2 0 4 5 4 10 0 6 -5 10 -11 10 -5 0
-7 -4 -4 -10z"/>
<path d="M2780 2405 c0 -8 2 -15 4 -15 2 0 6 7 10 15 3 8 1 15 -4 15 -6 0 -10
-7 -10 -15z"/>
<path d="M456 2402 c-3 -5 1 -9 9 -9 8 0 12 4 9 9 -3 4 -7 8 -9 8 -2 0 -6 -4
-9 -8z"/>
<path d="M1023 2381 c-72 -28 -95 -51 -99 -98 -2 -30 2 -48 15 -65 23 -27 32
-21 33 21 1 20 -6 37 -18 46 -34 25 -9 49 96 94 55 24 32 26 -27 2z"/>
<path d="M2610 2390 c0 -5 7 -7 15 -4 8 4 15 8 15 10 0 2 -7 4 -15 4 -8 0 -15
-4 -15 -10z"/>
<path d="M1820 2360 c0 -6 7 -10 15 -10 8 0 15 2 15 4 0 2 -7 6 -15 10 -8 3
-15 1 -15 -4z"/>
<path d="M155 2348 c-33 -4 -81 -10 -107 -14 l-48 -6 0 -1164 0 -1164 1740 0
1740 0 0 1155 c0 739 -3 1155 -10 1155 -18 0 -92 -43 -97 -56 -5 -14 33 -53
53 -54 6 0 11 -6 12 -12 1 -7 4 -25 8 -40 6 -25 4 -28 -19 -28 -16 0 -26 -7
-30 -19 -3 -12 -24 -24 -62 -36 -31 -10 -59 -25 -62 -34 -3 -9 -11 -30 -19
-48 -8 -17 -14 -38 -14 -46 0 -9 -9 -19 -20 -22 -11 -3 -20 -10 -20 -14 0 -5
-17 -11 -37 -15 -21 -3 -49 -12 -63 -20 -59 -34 -94 -46 -104 -36 -16 16 -36
12 -36 -7 0 -15 -1 -15 -13 1 -12 16 -14 16 -26 2 -11 -13 -17 -14 -28 -5 -11
10 -13 6 -11 -24 1 -20 -1 -39 -5 -43 -4 -4 -7 15 -7 43 0 62 -11 143 -19 143
-3 0 -5 -51 -4 -112 1 -62 0 -107 -3 -100 -3 6 -14 12 -24 12 -11 0 -28 10
-40 22 -15 16 -20 18 -20 7 0 -8 4 -19 10 -25 6 -6 3 -10 -10 -10 -11 0 -20 4
-20 9 0 4 -6 7 -12 6 -28 -3 -48 2 -48 12 0 5 4 8 9 4 20 -11 21 15 2 34 -13
13 -16 21 -8 24 8 2 7 9 -4 20 -13 13 -15 25 -8 59 4 24 8 57 8 73 -1 30 -1
30 -9 -5 -5 -19 -13 -36 -18 -38 -6 -2 -8 -18 -5 -39 5 -30 2 -38 -23 -59 -24
-20 -25 -24 -9 -22 24 4 32 -25 12 -44 -9 -8 -13 -27 -11 -53 3 -33 2 -36 -5
-15 -5 14 -9 18 -10 10 -1 -17 -92 -50 -137 -50 -34 0 -54 -16 -54 -42 0 -12
-8 -18 -25 -18 -21 0 -27 8 -41 57 -23 80 -49 103 -118 103 -64 0 -82 -13 -92
-68 l-8 -37 -11 40 c-14 47 -47 68 -115 71 -66 3 -149 27 -173 50 -28 27 -90
39 -118 23 -16 -8 -23 -8 -29 1 -5 8 -28 10 -74 7 -58 -4 -66 -3 -66 12 0 13
-8 18 -32 18 -18 0 -55 3 -82 8 -36 6 -47 5 -42 -3 4 -7 1 -12 -7 -12 -22 0
-51 -38 -52 -67 l0 -26 -129 2 c-120 2 -130 4 -155 27 -28 26 -78 32 -110 12
-15 -9 -24 -7 -46 10 -15 12 -40 22 -56 22 -50 0 -76 19 -82 59 -4 32 -45 107
-66 121 -5 3 -16 20 -25 38 -9 18 -28 38 -41 44 -14 6 -25 20 -25 31 0 28 -63
87 -94 87 -30 0 -76 19 -76 32 0 5 -6 8 -12 7 -21 -3 -48 12 -48 26 0 17 -13
25 -54 35 -17 5 -44 12 -61 17 -16 5 -57 5 -90 1z m-15 -128 c0 -9 -25 -20
-44 -20 -7 0 -21 7 -32 14 -17 14 -15 15 29 14 26 0 47 -4 47 -8z m2794 -415
c-4 -8 -8 -15 -10 -15 -2 0 -4 7 -4 15 0 8 4 15 10 15 5 0 7 -7 4 -15z m-261
-84 c4 -17 2 -18 -14 -8 -13 8 -15 13 -6 19 7 4 13 8 13 8 1 0 4 -9 7 -19z
m-1807 -15 c24 -20 28 -32 32 -90 l4 -66 -34 0 c-33 0 -34 1 -36 47 -2 52 -11
67 -38 61 -17 -3 -19 -15 -22 -97 -3 -91 -3 -93 -25 -87 -12 3 -28 6 -34 6
-10 0 -13 26 -13 99 0 93 1 100 26 125 36 35 101 36 140 2z m556 -158 l-3
-170 -37 6 c-88 15 -93 17 -107 49 l-13 32 -1 -34 c-1 -26 -4 -32 -17 -27 -9
3 -24 6 -35 6 -18 0 -19 9 -19 155 l0 155 33 0 32 0 47 -153 47 -152 0 151 c1
83 3 153 6 155 2 3 19 3 37 1 l33 -4 -3 -170z m634 -42 c-2 -116 -7 -210 -10
-208 -3 1 -19 2 -36 2 l-30 0 0 208 c0 115 2 211 5 213 2 3 20 3 39 1 l36 -4
-4 -212z m-1717 118 c1 -95 0 -96 -22 -90 -12 3 -28 6 -34 6 -10 0 -13 25 -13
90 l0 90 34 0 35 0 0 -96z m158 -14 c18 -58 33 -106 33 -108 0 -2 -8 -1 -17 1
-10 3 -39 8 -65 12 l-48 6 0 100 0 100 32 -3 c31 -3 32 -5 65 -108z m133 -5
c0 -107 -1 -115 -19 -115 -49 0 -51 6 -51 121 l0 109 35 0 35 0 0 -115z m510
86 c0 -29 -2 -30 -52 -33 l-53 -3 -3 -77 -3 -78 38 0 c36 0 39 -2 38 -27 0
-24 -5 -29 -37 -34 -20 -3 -53 -3 -72 -1 l-36 4 0 139 0 139 90 0 90 0 0 -29z
m515 7 c37 -32 46 -85 38 -231 -5 -105 -9 -127 -20 -122 -8 3 -23 5 -34 5 -17
0 -19 10 -21 148 l-3 147 -27 3 -28 3 0 -147 0 -146 -32 6 c-17 3 -34 8 -36
11 -3 2 -7 81 -9 175 l-4 170 75 0 c63 0 79 -3 101 -22z m275 -13 l0 -36 -51
3 -52 3 0 -75 0 -75 36 -3 c33 -3 37 -6 37 -32 0 -26 -4 -29 -37 -32 l-38 -3
-3 -53 -3 -53 -32 3 -32 3 -3 193 -2 192 90 0 90 0 0 -35z m374 -196 c16 -126
26 -232 24 -234 -2 -2 -17 -1 -34 4 -19 5 -30 15 -32 29 -3 18 -10 22 -38 22
-24 0 -34 -5 -34 -15 0 -11 -11 -15 -36 -15 -35 0 -36 1 -31 33 4 17 16 111
27 207 12 96 23 181 25 188 3 7 23 12 53 12 l48 0 28 -231z m-1987 -15 c20 -6
21 -11 22 -145 l2 -139 -36 0 -35 0 0 145 c0 153 0 152 47 139z m2428 -16 c2
-7 7 -26 10 -43 14 -73 45 -241 46 -250 1 -8 35 164 54 273 6 31 7 32 55 32
l50 0 0 -170 c0 -180 1 -177 -49 -163 -23 6 -24 8 -18 90 2 45 2 83 -2 83 -4
0 -13 -36 -20 -80 -8 -44 -16 -82 -20 -84 -3 -2 -28 0 -56 3 l-50 6 -11 68
c-15 92 -24 95 -24 8 0 -71 -1 -73 -22 -67 -13 3 -29 6 -35 6 -10 0 -13 37
-13 150 l0 150 50 0 c32 0 52 -5 55 -12z m505 -23 l0 -35 -65 0 -65 0 0 -71 0
-72 45 5 45 6 0 -39 0 -39 -45 0 -45 0 0 -41 c0 -33 -3 -40 -16 -35 -9 3 -27
6 -40 6 l-24 0 0 175 0 175 105 0 105 0 0 -35z m-2802 19 c21 -6 22 -10 22
-135 l0 -129 -35 0 -35 0 0 135 c0 142 0 142 48 129z m2112 -26 l0 -28 -85 0
c-82 0 -85 1 -85 23 0 13 2 26 4 28 2 2 41 4 85 4 l81 0 0 -27z m-2012 3 c1
-4 20 -5 42 -3 l40 4 0 -121 0 -121 -35 0 -34 0 -26 88 c-15 48 -33 106 -40
130 l-14 43 32 -7 c18 -3 33 -9 35 -13z m222 -97 c0 -57 4 -76 15 -80 28 -11
45 16 45 72 l0 54 36 0 36 0 -4 -70 c-5 -91 -29 -120 -100 -120 -74 0 -93 24
-101 129 -4 46 -5 87 -2 90 2 4 20 5 39 3 l36 -4 0 -74z m260 -19 l0 -55 48
-1 c26 -1 51 -1 55 0 5 1 7 -13 5 -31 -2 -24 -8 -33 -20 -32 -10 0 -49 1 -88
2 l-70 2 0 85 0 85 35 0 35 0 0 -55z m211 15 c17 0 19 -8 19 -70 l0 -70 -35 0
-35 0 0 76 c0 65 2 75 16 70 9 -3 24 -6 35 -6z m155 -20 c23 0 24 -4 24 -60
l0 -60 -35 0 c-32 0 -35 3 -45 41 -6 23 -16 53 -21 67 -9 24 -8 24 22 18 17
-3 42 -6 55 -6z m164 -36 c0 -15 35 -20 44 -6 8 13 76 1 76 -12 0 -7 -11 -23
-25 -36 -22 -20 -36 -24 -98 -24 l-72 -1 2 50 c1 28 2 50 2 50 1 1 17 -1 36
-3 21 -3 35 -10 35 -18z m310 -37 c46 -9 65 -17 65 -27 0 -12 -17 -15 -90 -15
l-90 0 -3 28 c-3 24 0 27 25 27 15 -1 57 -6 93 -13z m168 -27 c6 0 12 -5 12
-11 0 -15 -63 -6 -68 10 -4 10 1 12 19 8 13 -4 30 -7 37 -7z m670 -184 c4 -54
-5 -66 -44 -58 -22 4 -24 9 -24 59 l0 54 33 -3 c31 -3 32 -5 35 -52z m115 29
c10 -4 12 -16 8 -43 -5 -28 -11 -38 -28 -40 -22 -3 -23 -1 -38 71 -3 17 26 24
58 12z m121 -21 c10 -4 16 -18 16 -35 0 -26 -3 -29 -35 -29 -33 0 -35 2 -35
35 0 36 15 44 54 29z m209 -35 c48 -7 90 -16 93 -21 3 -4 -42 -8 -100 -8
l-106 0 0 25 c0 15 5 23 13 21 6 -2 52 -10 100 -17z m-2465 -221 c7 -17 8 -28
2 -28 -6 0 -10 5 -10 10 0 6 -7 10 -15 10 -8 0 -15 -5 -15 -12 0 -6 -2 -9 -5
-6 -3 2 0 19 6 37 12 34 18 33 37 -11z m50 -16 c9 2 20 17 23 33 l7 30 1 -31
c1 -36 -18 -57 -43 -48 -11 4 -16 17 -14 43 l1 36 4 -33 c3 -25 9 -32 21 -30z
m74 23 c-2 -19 -8 -35 -12 -35 -4 0 -10 16 -12 35 -3 27 0 35 12 35 12 0 15
-8 12 -35z m86 3 c5 -39 -33 -58 -60 -30 -17 16 -18 23 -8 41 17 33 64 25 68
-11z m59 -3 c-2 -32 -17 -51 -17 -22 0 8 -4 7 -10 -3 -7 -11 -10 -5 -10 23 0
30 4 37 20 37 17 0 20 -6 17 -35z m72 -25 c0 -10 -2 -11 -6 -2 -2 6 -11 12
-18 12 -7 0 -15 -6 -18 -12 -2 -7 -6 -11 -9 -8 -3 3 1 21 9 40 l15 34 14 -24
c7 -14 13 -32 13 -40z m86 20 c0 -28 -4 -35 -20 -35 -16 0 -21 8 -23 38 -3 35
-1 38 20 35 19 -2 23 -9 23 -38z m53 33 c-10 -2 -18 -9 -18 -14 0 -5 8 -10 18
-10 16 -1 16 -2 0 -6 -10 -2 -18 -11 -18 -19 0 -8 4 -13 9 -9 5 3 12 1 16 -5
3 -5 -3 -10 -13 -10 -15 0 -21 9 -25 33 -6 40 -2 47 26 46 17 -1 18 -2 5 -6z
m49 0 c-18 -5 -18 -6 2 -27 20 -21 20 -24 6 -36 -12 -10 -19 -10 -27 -2 -9 9
-8 12 5 12 22 0 22 9 0 25 -19 14 -9 36 15 34 14 -1 14 -2 -1 -6z m66 0 c-7
-2 -14 -19 -14 -36 l-2 -32 -4 30 c-3 16 -10 33 -16 37 -7 4 2 7 18 7 17 0 24
-3 18 -6z m67 -3 c-13 -8 -12 -11 5 -24 19 -14 19 -16 3 -32 -14 -14 -20 -15
-30 -6 -9 9 -7 12 13 12 l24 0 -24 19 c-25 19 -22 41 7 41 15 0 15 -2 2 -10z
m58 3 c-10 -2 -18 -9 -18 -14 0 -5 8 -10 18 -10 16 -1 16 -2 0 -6 -22 -5 -24
-23 -3 -23 8 0 15 -5 15 -11 0 -6 -8 -9 -17 -7 -13 2 -19 14 -21 41 -3 33 -1
37 20 36 17 -1 18 -3 6 -6z m60 -60 c15 -11 15 -12 -5 -13 -21 0 -23 5 -22 43
2 33 3 36 6 12 3 -16 12 -35 21 -42z m50 5 c7 1 12 -3 12 -9 0 -6 -8 -9 -17
-7 -13 2 -18 14 -20 43 l-1 40 7 -35 c4 -20 12 -34 19 -32z m60 55 c-21 -5
-24 -23 -5 -24 10 0 10 -2 0 -6 -18 -7 -16 -23 2 -23 8 0 15 -5 15 -11 0 -6
-10 -9 -22 -7 -19 2 -24 10 -26 41 -3 35 -2 37 25 36 17 -1 21 -3 11 -6z m69
-9 c3 -9 0 -20 -7 -24 -8 -5 -9 -9 -1 -14 6 -4 11 -12 11 -19 0 -8 -3 -8 -11
0 -6 6 -18 9 -25 6 -10 -4 -14 4 -14 31 0 30 4 36 20 36 11 0 23 -7 27 -16z
m97 -6 c8 -13 6 -22 -8 -37 -30 -33 -46 -26 -46 20 0 36 3 40 21 37 12 -2 27
-11 33 -20z m81 -12 c0 -36 -26 -56 -49 -37 -16 14 -22 52 -9 65 4 4 19 6 33
4 20 -2 25 -8 25 -32z m115 17 c0 -19 28 -16 33 5 3 11 5 9 6 -8 0 -14 -4 -32
-9 -40 -8 -13 -10 -12 -10 3 0 9 -7 17 -15 17 -8 0 -15 -7 -15 -15 0 -8 -4
-15 -8 -15 -5 0 -7 14 -4 30 6 40 -13 38 -25 -2 l-10 -33 -4 38 c-5 37 -5 37
28 35 19 -1 33 -8 33 -15z m88 10 c-21 -5 -23 -19 -5 -26 7 -3 5 -6 -5 -6 -22
-1 -24 -21 -3 -21 8 0 15 -4 15 -10 0 -5 -9 -10 -20 -10 -16 0 -20 7 -20 33 0
39 6 47 34 46 17 -1 18 -2 4 -6z m76 -20 l15 -28 1 28 c0 15 4 27 10 27 9 0 3
-58 -7 -70 -2 -3 -13 6 -23 20 l-20 25 0 -22 c0 -13 -4 -23 -9 -23 -8 0 -6 21
5 58 5 18 12 15 28 -15z m74 20 c-10 -2 -18 -9 -18 -14 0 -5 8 -10 18 -10 16
-1 16 -2 0 -6 -19 -5 -25 -23 -8 -23 6 0 10 -4 10 -10 0 -5 -9 -10 -20 -10
-22 0 -23 3 -14 49 5 24 12 31 28 30 17 -1 17 -2 4 -6z m56 -15 c4 12 12 22
17 22 5 0 9 -10 10 -22 0 -23 0 -23 10 1 5 13 12 21 15 18 3 -3 -2 -20 -12
-39 -15 -30 -18 -31 -24 -13 -7 18 -8 19 -15 3 -12 -30 -25 -20 -24 20 1 32 2
34 8 12 l7 -25 8 23z m101 12 c5 -8 11 -7 21 1 11 9 14 9 14 -1 0 -10 3 -10
14 0 8 6 25 10 38 8 31 -4 35 -39 8 -63 -25 -23 -51 -12 -60 26 l-6 24 -15
-27 -14 -27 -11 34 c-10 33 -3 48 11 25z m175 -10 c0 -11 -5 -20 -11 -20 -6 0
-8 -9 -4 -22 6 -22 5 -22 -8 -5 -11 13 -16 15 -20 5 -8 -23 -15 -4 -10 30 4
26 10 32 29 32 17 0 24 -6 24 -20z m45 0 c-11 -12 -13 -20 -6 -25 6 -3 11 -14
11 -23 -1 -15 -2 -15 -11 2 -9 14 -13 16 -20 5 -12 -20 -17 -8 -12 27 4 25 10
32 29 32 23 0 24 -2 9 -18z m88 13 c-7 -2 -13 -14 -13 -26 0 -12 -5 -29 -11
-37 -8 -11 -9 -6 -6 22 4 23 1 39 -6 42 -7 2 2 4 18 4 17 0 24 -2 18 -5z m18
-60 c-10 -17 -10 -17 -11 2 0 11 4 31 8 45 l7 25 3 -27 c2 -15 -1 -35 -7 -45z
m42 35 c-6 -7 -13 -22 -16 -33 -4 -16 -5 -14 -6 7 -1 38 9 62 22 49 7 -7 7
-14 0 -23z m53 10 c-3 -13 -6 -29 -6 -35 0 -7 -4 -13 -9 -13 -5 0 -7 10 -4 23
4 17 2 19 -6 7 -5 -8 -13 -11 -17 -7 -8 8 24 47 39 47 5 0 7 -10 3 -22z m42
15 c-10 -2 -18 -9 -18 -14 0 -5 8 -10 18 -10 16 -1 16 -2 0 -6 -19 -5 -25 -23
-8 -23 6 0 10 -4 10 -10 0 -5 -9 -10 -20 -10 -22 0 -23 3 -14 49 5 24 12 31
28 30 17 -1 17 -2 4 -6z m60 0 c-21 -5 -22 -7 -6 -33 16 -25 -4 -52 -24 -32
-9 9 -8 12 7 12 17 0 17 1 1 19 -21 23 -13 41 17 40 17 -1 18 -2 5 -6z m-1839
-200 c0 -11 -3 -13 -6 -5 -2 6 -13 12 -24 12 -17 0 -19 -8 -19 -59 0 -38 4
-61 13 -64 6 -3 -6 -5 -28 -5 -22 0 -34 2 -27 5 17 7 17 123 -1 123 -7 0 -18
-5 -25 -12 -9 -9 -12 -8 -12 5 0 14 10 17 65 17 56 0 65 -3 64 -17z m106 -20
c3 -15 15 -44 25 -65 l18 -38 -27 0 c-22 0 -27 4 -27 23 1 15 -5 23 -20 25
-25 4 -42 -27 -22 -40 9 -5 3 -8 -16 -8 -22 0 -26 3 -18 13 6 6 18 32 28 57
29 76 45 85 59 33z m117 7 c-4 -28 -2 -30 27 -30 26 0 31 4 31 24 0 13 -6 27
-12 29 -7 3 1 6 17 6 l30 1 0 -70 0 -70 -30 1 c-16 0 -24 3 -17 6 6 2 12 18
12 34 0 26 -3 29 -31 29 -30 0 -31 -2 -27 -35 4 -32 2 -35 -22 -35 -24 0 -25
2 -25 70 0 69 1 70 26 70 23 0 25 -3 21 -30z m228 13 c0 -13 -3 -14 -12 -5
-22 22 -48 14 -48 -14 0 -23 3 -25 25 -20 19 5 25 2 25 -9 0 -11 -6 -14 -25
-9 -22 5 -25 3 -25 -20 0 -32 25 -44 52 -27 16 10 19 10 16 -1 -3 -8 -25 -14
-64 -15 -32 -1 -53 0 -46 3 7 4 12 27 12 64 0 37 -5 60 -12 63 -7 3 13 6 45 6
47 1 57 -2 57 -16z m144 -5 c8 -13 6 -21 -7 -35 -16 -18 -16 -21 0 -44 9 -13
22 -27 27 -31 6 -4 1 -8 -12 -8 -15 0 -29 10 -40 30 -22 38 -35 38 -30 0 4
-28 2 -30 -26 -29 -17 0 -25 3 -18 6 7 3 12 26 12 63 0 37 -5 60 -12 64 -7 3
11 4 41 3 38 -1 57 -7 65 -19z m156 5 c0 -13 -3 -14 -12 -5 -22 22 -48 14 -48
-13 0 -27 18 -33 38 -13 9 9 12 6 12 -17 0 -23 -3 -26 -12 -17 -20 20 -38 14
-38 -13 0 -31 25 -43 52 -26 16 10 19 10 16 -1 -3 -8 -25 -14 -64 -16 -37 -1
-54 1 -46 7 10 6 13 26 10 70 l-3 61 48 0 c38 0 47 -3 47 -17z m82 -13 c-4
-28 -2 -30 28 -30 30 0 32 2 28 30 -4 28 -2 30 26 29 17 0 25 -3 19 -6 -17 -6
-17 -105 -1 -121 9 -9 5 -12 -18 -12 -28 0 -30 2 -26 35 4 33 3 35 -27 35 -28
0 -31 -3 -31 -29 0 -16 6 -32 13 -34 6 -3 -6 -5 -28 -5 -22 0 -34 2 -27 5 7 3
12 26 12 63 0 37 -5 60 -12 63 -7 3 1 6 18 6 28 1 30 -1 26 -29z m261 -15 c11
-25 22 -45 25 -45 4 0 15 20 25 45 16 38 23 45 45 44 15 0 21 -3 15 -6 -8 -3
-13 -26 -13 -63 0 -37 5 -60 13 -63 6 -3 -2 -6 -18 -6 -30 -1 -30 0 -28 47 l2
47 -21 -47 c-12 -27 -25 -48 -29 -48 -3 0 -16 21 -28 48 l-21 47 3 -47 c2 -45
1 -48 -23 -48 -18 0 -21 3 -12 9 10 6 13 26 10 70 -3 56 -1 61 17 61 14 0 25
-13 38 -45z m238 -10 c10 -28 23 -58 29 -67 9 -16 6 -18 -18 -18 -23 0 -28 4
-28 23 1 15 -5 23 -20 25 -25 4 -42 -27 -22 -40 9 -5 3 -8 -16 -8 -22 0 -26 3
-18 13 6 7 20 38 32 70 12 32 26 57 32 55 6 -2 19 -26 29 -53z m179 40 c0 -8
-4 -15 -10 -15 -5 0 -10 5 -10 11 0 18 -43 5 -46 -14 -3 -23 25 -35 37 -16 6
10 9 6 9 -14 0 -25 -2 -27 -20 -17 -11 6 -21 7 -21 3 -4 -28 -3 -39 5 -50 6
-10 -1 -13 -30 -13 -26 0 -34 3 -26 9 10 6 13 26 10 70 l-3 61 53 0 c39 0 52
-4 52 -15z m73 8 c-17 -6 -17 -105 -1 -121 9 -9 3 -12 -27 -11 -22 0 -34 3
-27 6 7 3 12 26 12 63 0 37 -5 60 -12 63 -7 3 5 5 27 5 22 0 34 -2 28 -5z
m-1003 -440 c-1 -27 -1 -27 -15 -9 -12 16 -12 22 -2 28 17 11 17 11 17 -19z
m64 15 c-2 -4 0 -9 5 -12 5 -3 11 1 15 9 7 20 38 7 34 -14 -4 -20 -49 -21 -65
-1 -9 10 -12 11 -13 3 0 -17 -30 -17 -30 0 0 8 2 16 4 18 7 7 54 4 50 -3z
m332 3 c15 13 28 -5 20 -28 -5 -12 -9 -13 -21 -3 -8 7 -15 8 -15 3 0 -5 -7
-10 -15 -10 -8 0 -15 7 -15 16 0 14 -2 14 -10 1 -9 -13 -11 -13 -20 0 -6 10
-10 11 -10 3 0 -7 -4 -13 -10 -13 -5 0 -10 7 -10 16 0 12 6 15 23 11 12 -4 29
-2 37 3 9 6 18 6 24 0 6 -6 14 -6 22 1z m-531 -19 c8 20 55 21 55 1 0 -9 -9
-12 -24 -9 -14 2 -26 0 -29 -7 -5 -16 -27 1 -26 21 0 14 2 13 9 -3 7 -18 8
-18 15 -3z m100 7 c4 -6 4 -13 0 -17 -3 -3 -10 0 -14 7 -7 11 -10 11 -14 0 -4
-10 -6 -9 -6 4 -1 19 24 23 34 6z m182 -11 c-3 -8 -6 -5 -6 6 -1 11 2 17 5 13
3 -3 4 -12 1 -19z m43 7 c0 -6 -6 -12 -13 -12 -8 0 -14 6 -14 12 0 6 6 12 14
12 7 0 13 -6 13 -12z m46 -4 c2 -7 0 -7 -3 -1 -3 7 -9 8 -17 1 -9 -8 -13 -7
-13 3 0 17 30 14 33 -3z m44 -2 c0 -11 -4 -17 -10 -14 -5 3 -10 13 -10 21 0 8
5 14 10 14 6 0 10 -9 10 -21z m170 -5 c0 -22 -16 -17 -17 6 -1 11 2 18 8 15 5
-4 9 -13 9 -21z"/>
<path d="M2218 1565 c-4 -22 -10 -73 -14 -112 l-7 -73 27 0 27 0 -7 68 c-4 37
-10 87 -13 112 l-7 45 -6 -40z"/>
<path d="M281 1364 c0 -11 3 -14 6 -6 3 7 2 16 -1 19 -3 4 -6 -2 -5 -13z"/>
<path d="M847 804 c-4 -4 -7 -16 -7 -26 0 -14 6 -19 23 -16 14 2 22 10 22 23
0 20 -25 32 -38 19z"/>
<path d="M930 794 c0 -8 5 -12 10 -9 6 3 10 10 10 16 0 5 -4 9 -10 9 -5 0 -10
-7 -10 -16z"/>
<path d="M1085 771 c-6 -11 9 -23 19 -14 9 9 7 23 -3 23 -6 0 -12 -4 -16 -9z"/>
<path d="M1620 800 c0 -5 5 -10 11 -10 5 0 7 5 4 10 -3 6 -8 10 -11 10 -2 0
-4 -4 -4 -10z"/>
<path d="M1700 786 c0 -17 5 -26 16 -26 10 0 14 7 12 22 -5 32 -28 35 -28 4z"/>
<path d="M1774 795 c-4 -9 -2 -21 4 -27 15 -15 44 -1 40 19 -4 23 -36 29 -44
8z"/>
<path d="M2390 795 c-15 -18 -5 -35 21 -35 14 0 19 7 19 25 0 28 -21 33 -40
10z"/>
<path d="M2475 800 c-3 -5 1 -10 10 -10 9 0 13 5 10 10 -3 6 -8 10 -10 10 -2
0 -7 -4 -10 -10z"/>
<path d="M1085 577 c-8 -19 -2 -31 13 -26 5 2 6 13 2 24 -7 19 -8 19 -15 2z"/>
<path d="M1550 590 c0 -21 4 -30 13 -27 6 2 12 14 12 27 0 13 -6 25 -12 28 -9
2 -13 -7 -13 -28z"/>
<path d="M2305 577 c-4 -10 -5 -21 -1 -24 10 -10 18 4 13 24 -4 17 -4 17 -12
0z"/>
<path d="M1691 184 c0 -11 3 -14 6 -6 3 7 2 16 -1 19 -3 4 -6 -2 -5 -13z"/>
<path d="M2001 184 c0 -11 3 -14 6 -6 3 7 2 16 -1 19 -3 4 -6 -2 -5 -13z"/>
<path d="M2587 2346 c-4 -10 -1 -19 9 -23 21 -8 26 1 11 22 -13 16 -14 16 -20
1z"/>
<path d="M973 2327 c-2 -4 7 -20 21 -34 26 -25 27 -26 41 -7 12 16 12 19 -1
22 -8 2 -14 10 -14 17 0 15 -38 16 -47 2z"/>
<path d="M1740 2311 c0 -5 7 -12 16 -15 8 -3 12 -2 9 3 -3 5 3 12 12 14 11 3
8 5 -9 6 -16 0 -28 -3 -28 -8z"/>
<path d="M1296 2262 c-4 -12 -12 -20 -17 -17 -5 4 -9 2 -9 -4 0 -13 69 -6 83
9 10 10 7 11 -15 6 -20 -5 -27 -2 -30 11 -3 15 -5 14 -12 -5z"/>
<path d="M2754 2269 c-4 -7 0 -16 9 -21 9 -5 14 -15 11 -23 -4 -8 -1 -15 4
-15 16 0 24 18 12 25 -6 4 -8 11 -4 16 3 5 10 7 15 4 5 -3 6 1 3 9 -7 18 -40
21 -50 5z"/>
<path d="M1127 2239 c6 -6 9 -19 6 -28 -4 -9 -2 -13 2 -8 5 4 17 0 27 -10 10
-9 18 -12 18 -6 0 12 -46 63 -57 63 -4 0 -2 -5 4 -11z"/>
<path d="M1210 2230 c0 -5 -7 -10 -16 -10 -29 0 -5 -17 26 -18 34 -1 36 3 16
24 -17 16 -26 18 -26 4z"/>
<path d="M3040 2236 c0 -2 7 -7 16 -10 8 -3 12 -2 9 4 -6 10 -25 14 -25 6z"/>
<path d="M1098 2223 c7 -3 16 -2 19 1 4 3 -2 6 -13 5 -11 0 -14 -3 -6 -6z"/>
<path d="M2475 2220 c3 -5 8 -10 11 -10 2 0 4 5 4 10 0 6 -5 10 -11 10 -5 0
-7 -4 -4 -10z"/>
<path d="M2710 2220 c0 -5 5 -10 11 -10 5 0 7 5 4 10 -3 6 -8 10 -11 10 -2 0
-4 -4 -4 -10z"/>
<path d="M2790 2186 c0 -8 4 -17 9 -20 5 -4 7 3 4 14 -6 23 -13 26 -13 6z"/>
<path d="M2755 2180 c-3 -5 -1 -10 4 -10 6 0 11 5 11 10 0 6 -2 10 -4 10 -3 0
-8 -4 -11 -10z"/>
<path d="M3043 2174 c-17 -18 -16 -20 7 -20 21 0 24 5 12 22 -5 9 -10 8 -19
-2z"/>
<path d="M2606 2167 c3 -10 9 -15 12 -12 3 3 0 11 -7 18 -10 9 -11 8 -5 -6z"/>
<path d="M2710 2161 c0 -25 6 -27 13 -6 4 8 2 17 -3 20 -6 4 -10 -3 -10 -14z"/>
<path d="M2950 2165 c0 -10 9 -15 28 -14 23 2 24 2 4 6 -12 2 -20 9 -17 14 4
5 1 9 -4 9 -6 0 -11 -7 -11 -15z"/>
<path d="M2880 2158 c0 -9 5 -20 10 -23 13 -8 13 5 0 25 -8 13 -10 13 -10 -2z"/>
<path d="M2570 2146 c0 -8 4 -17 9 -20 10 -7 23 19 14 28 -11 11 -23 6 -23 -8z"/>
<path d="M2798 2138 c7 -7 12 -20 12 -30 0 -10 4 -18 8 -18 10 0 9 30 -2 48
-4 6 -12 12 -19 12 -8 0 -8 -3 1 -12z"/>
<path d="M3010 2134 c0 -8 5 -12 10 -9 6 4 8 11 5 16 -9 14 -15 11 -15 -7z"/>
<path d="M3048 2123 c-21 -5 -24 -23 -4 -23 8 0 17 -12 20 -26 4 -15 10 -24
13 -20 3 3 12 1 20 -5 9 -9 13 -8 13 0 0 6 -4 11 -10 11 -5 0 -10 4 -10 10 0
5 8 7 18 3 14 -5 15 -3 5 7 -10 11 -15 11 -28 0 -12 -10 -15 -10 -15 3 0 8 3
17 8 20 4 2 1 2 -5 1 -7 -2 -13 1 -13 5 0 5 6 12 13 14 15 7 -2 6 -25 0z"/>
<path d="M2873 2105 c-9 -24 1 -27 15 -5 8 13 8 20 2 20 -6 0 -13 -7 -17 -15z"/>
<path d="M2452 2084 c-6 -11 -17 -15 -31 -11 -11 3 -21 1 -21 -4 0 -5 9 -9 20
-9 11 0 20 -4 20 -10 0 -15 -44 -7 -52 10 -5 12 -7 12 -7 -3 -1 -10 6 -20 14
-23 8 -4 15 -15 15 -26 0 -17 3 -18 15 -8 8 6 20 8 26 4 9 -5 10 -2 6 10 -4 9
0 28 10 42 11 17 13 28 6 35 -8 8 -14 6 -21 -7z"/>
<path d="M2819 2074 c0 -5 -2 -16 -4 -25 -1 -9 3 -16 11 -16 7 0 12 8 11 18
-3 20 -17 38 -18 23z"/>
<path d="M3146 2063 c-6 -14 -5 -15 5 -6 7 7 10 15 7 18 -3 3 -9 -2 -12 -12z"/>
<path d="M2310 2059 c0 -5 5 -7 10 -4 6 3 10 8 10 11 0 2 -4 4 -10 4 -5 0 -10
-5 -10 -11z"/>
<path d="M2281 2004 c0 -11 3 -14 6 -6 3 7 2 16 -1 19 -3 4 -6 -2 -5 -13z"/>
<path d="M3060 2002 c0 -6 -12 -25 -27 -43 -22 -26 -23 -29 -6 -18 23 14 48
58 38 67 -3 3 -5 0 -5 -6z"/>
<path d="M2842 1980 c0 -14 2 -19 5 -12 2 6 2 18 0 25 -3 6 -5 1 -5 -13z"/>
<path d="M2911 1953 c-14 -31 5 -30 44 1 l29 23 -31 -1 c-23 -1 -35 -8 -42
-23z"/>
<path d="M3091 1914 c0 -11 3 -14 6 -6 3 7 2 16 -1 19 -3 4 -6 -2 -5 -13z"/>
<path d="M2687 1913 c-12 -12 -7 -20 20 -32 l28 -13 -20 24 c-11 12 -20 24
-21 26 0 1 -4 -1 -7 -5z"/>
<path d="M2355 1900 c3 -5 8 -10 11 -10 2 0 4 5 4 10 0 6 -5 10 -11 10 -5 0
-7 -4 -4 -10z"/>
<path d="M2606 1895 c-16 -12 -17 -15 -4 -15 8 0 21 7 28 15 16 19 1 19 -24 0z"/>
<path d="M3050 1880 c0 -5 9 -10 20 -10 11 0 20 5 20 10 0 6 -9 10 -20 10 -11
0 -20 -4 -20 -10z"/>
<path d="M2421 1693 c16 -27 27 -28 54 -7 19 15 19 15 -8 9 -17 -5 -33 -2 -44
6 -15 13 -15 12 -2 -8z"/>
</g>
</svg>
